<svg width="12" height="12" viewBox="0 0 12 12" fill="none" xmlns="http://www.w3.org/2000/svg">
<path d="M3.82165 6.309L5.21502 10.4891C5.23114 10.5252 5.25428 10.5578 5.28309 10.5849C5.3119 10.612 5.34581 10.6331 5.38285 10.647C5.41989 10.6609 5.45932 10.6673 5.49885 10.6658C5.53838 10.6643 5.57723 10.655 5.61313 10.6384L6.11076 10.3896C6.32029 10.2806 6.49599 10.1163 6.6188 9.91451C6.74161 9.71275 6.80685 9.48122 6.80744 9.24502V7.30426H9.99228C10.1426 7.30152 10.2904 7.26475 10.4245 7.1967C10.5586 7.12865 10.6756 7.0311 10.7666 6.91138C10.8575 6.79165 10.9202 6.65286 10.9499 6.50544C10.9795 6.35801 10.9754 6.20578 10.9378 6.06018L9.94252 2.07913C9.88817 1.86847 9.76628 1.68142 9.59553 1.54661C9.42477 1.41181 9.21454 1.33666 8.99702 1.33268H2.32876C2.0648 1.33268 1.81165 1.43754 1.625 1.62419C1.43835 1.81084 1.3335 2.06399 1.3335 2.32795V5.31373C1.3335 5.57769 1.43835 5.83084 1.625 6.01749C1.81165 6.20414 2.0648 6.309 2.32876 6.309H3.82165ZM3.82165 6.309V1.33268" stroke="#909090" stroke-width="1.2" stroke-linecap="round" stroke-linejoin="round"/>
</svg>
