<svg width="12" height="12" viewBox="0 0 12 12" fill="none" xmlns="http://www.w3.org/2000/svg">
<path d="M3.82165 5.691L5.21502 1.5109C5.23114 1.47478 5.25428 1.44221 5.28309 1.4151C5.3119 1.388 5.34581 1.36689 5.38285 1.353C5.41989 1.33911 5.45932 1.33271 5.49885 1.33419C5.53838 1.33567 5.57723 1.34499 5.61313 1.36161L6.11076 1.61043C6.32029 1.71944 6.49599 1.88373 6.6188 2.08549C6.74161 2.28725 6.80685 2.51878 6.80744 2.75498V4.69574H9.99228C10.1426 4.69848 10.2904 4.73525 10.4245 4.8033C10.5586 4.87135 10.6756 4.9689 10.7666 5.08862C10.8575 5.20835 10.9202 5.34714 10.9499 5.49456C10.9795 5.64199 10.9754 5.79422 10.9378 5.93982L9.94252 9.92087C9.88817 10.1315 9.76628 10.3186 9.59553 10.4534C9.42477 10.5882 9.21454 10.6633 8.99702 10.6673H2.32876C2.0648 10.6673 1.81165 10.5625 1.625 10.3758C1.43835 10.1892 1.3335 9.93601 1.3335 9.67205V6.68627C1.3335 6.42231 1.43835 6.16916 1.625 5.98251C1.81165 5.79586 2.0648 5.691 2.32876 5.691H3.82165ZM3.82165 5.691V10.6673" stroke="#909090" stroke-width="1.2" stroke-linecap="round" stroke-linejoin="round"/>
</svg>
